<?xml version="1.0" encoding="utf-8"?>
<!-- Generator: Adobe Illustrator 17.1.0, SVG Export Plug-In . SVG Version: 6.00 Build 0)  -->
<!DOCTYPE svg PUBLIC "-//W3C//DTD SVG 1.1//EN" "http://www.w3.org/Graphics/SVG/1.1/DTD/svg11.dtd">
<svg version="1.1" id="Layer_1" xmlns="http://www.w3.org/2000/svg" xmlns:xlink="http://www.w3.org/1999/xlink" x="0px" y="0px"
	 viewBox="0 0 225 225" enable-background="new 0 0 225 225" xml:space="preserve">
<g>
	<circle fill="#E4E4E4" cx="112.5" cy="112.5" r="112.5"/>
	<g>
		<path fill="#FFFFFF" d="M86.9,177.5c-2.6-0.8-4.9-2.1-6.2-4.6c-1.7-3.1-1.4-6.4,1-9c1.6-1.7,3.2-3.3,4.9-5
			c5.8-5.8,11.6-11.6,17.4-17.4c0.7-0.7,1.3-1.4,2.2-2.3c-1.8-0.3-3.3-0.5-4.9-0.7c-6.5-1-12.8-2.9-18.4-6.5
			c-2.4-1.5-4.8-3.3-6.8-5.2c-3.3-3.2-3.3-7.2-0.4-10.8c2.5-3.1,6.5-3.8,10.3-1.6c2.8,1.6,5.5,3.4,8.4,4.7c14.9,6.4,29.3,5.3,43-3.6
			c1.9-1.3,3.9-2.3,6.3-2.3c3.2,0,5.8,1.9,7.2,5.3c1.3,3.1,0.8,5.8-1.6,8.1c-5.7,5.7-12.6,9.1-20.4,10.9c-3.1,0.7-6.3,1.2-9.6,1.8
			c0.7,0.8,1.4,1.5,2.1,2.2c7.1,7.1,14.2,14.3,21.3,21.4c2.3,2.3,3.8,4.9,2.8,8.2c-1,3.4-3.4,5.6-6.9,6.3c-0.1,0-0.2,0.1-0.3,0.2
			c-0.6,0-1.2,0-1.8,0c-2.6-0.6-4.5-2.3-6.3-4.1c-5.1-5.2-10.2-10.3-15.3-15.4c-1.9-1.9-2.4-1.9-4.3,0c-0.2,0.2-0.5,0.5-0.7,0.7
			c-4.8,4.9-9.7,9.7-14.5,14.6c-1.7,1.7-3.5,3.4-5.8,4.2C88.6,177.5,87.7,177.5,86.9,177.5z"/>
		<path fill="#FFFFFF" d="M145,76.2c-1.6-13.1-11.2-24.2-23.9-27.5c-2-0.5-4-0.8-6.1-1.2c-1.7,0-3.4,0-5.1,0
			c-0.4,0.1-0.8,0.2-1.2,0.2c-5.3,0.6-10.2,2.4-14.6,5.4c-14.7,10.1-18.8,29.2-9.6,44.5c8.3,13.7,26,19.4,40.7,13
			C139.1,104.7,146.9,91.1,145,76.2z M112.7,96.5c-9,0.1-16.2-7-16.3-16c-0.1-9,7.1-16.2,16-16.2c8.9-0.1,16,7.1,16.1,16
			C128.6,89.2,121.6,96.4,112.7,96.5z"/>
	</g>
</g>
</svg>
